<svg id="Icono_idioma" data-name="Icono idioma" xmlns="http://www.w3.org/2000/svg" width="40" height="40" viewBox="0 0 40 40">
  <path id="Path_1" data-name="Path 1" d="M0,0H40V40H0Z" fill="none"/>
  <path id="Path_2" data-name="Path 2" d="M20,2A18,18,0,1,0,38,20,18.007,18.007,0,0,0,20,2ZM18.2,34.274A14.379,14.379,0,0,1,5.6,20a14.612,14.612,0,0,1,.378-3.222L14.6,25.4v1.8a3.611,3.611,0,0,0,3.6,3.6ZM30.62,29.7a3.571,3.571,0,0,0-3.42-2.5H25.4V21.8A1.805,1.805,0,0,0,23.6,20H12.8V16.4h3.6a1.805,1.805,0,0,0,1.8-1.8V11h3.6a3.611,3.611,0,0,0,3.6-3.6V6.662A14.368,14.368,0,0,1,30.62,29.7Z" />
</svg>
